<?xml version="1.0" standalone="no"?>
<!DOCTYPE svg PUBLIC "-//W3C//DTD SVG 20010904//EN"
 "http://www.w3.org/TR/2001/REC-SVG-20010904/DTD/svg10.dtd">
<svg version="1.0" xmlns="http://www.w3.org/2000/svg"
 width="113.000000pt" height="113.000000pt" viewBox="0 0 113.000000 113.000000"
 preserveAspectRatio="xMidYMid meet">
<metadata>
Created by potrace 1.14, written by Peter Selinger 2001-2017
</metadata>
<g transform="translate(0.000000,113.000000) scale(0.100000,-0.100000)"
fill="#000000" stroke="none">
<path d="M296 904 c-4 -9 -13 -14 -22 -10 -8 3 -13 2 -9 -3 8 -13 -5 -41 -20
-41 -7 0 -11 -12 -11 -27 1 -16 -2 -38 -6 -51 -4 -13 -4 -21 0 -18 4 2 7 -26
7 -64 0 -37 -3 -66 -7 -63 -5 2 -8 -1 -8 -7 0 -7 -5 -6 -14 2 -8 7 -12 17 -9
21 3 5 -4 11 -15 14 -11 3 -18 11 -16 17 4 9 -7 12 -36 11 -22 -1 -40 2 -40 7
0 5 -6 6 -12 1 -7 -4 -21 -6 -32 -4 -10 1 -15 -2 -12 -7 3 -6 0 -13 -6 -15 -9
-4 -9 -6 -1 -6 8 -1 9 -10 3 -31 -9 -30 -7 -32 20 -34 8 -1 17 -11 20 -24 3
-13 9 -24 15 -25 5 -1 9 -8 7 -15 -2 -7 1 -12 5 -11 27 5 43 -3 43 -21 0 -12
6 -20 13 -19 28 3 48 -2 42 -11 -6 -9 8 -14 28 -11 5 1 6 -3 2 -9 -3 -5 -3
-10 2 -10 4 0 8 -11 8 -25 0 -20 -5 -25 -25 -26 -14 0 -20 -3 -13 -6 10 -3 10
-7 0 -18 -7 -7 -15 -11 -19 -8 -8 4 -10 -6 -10 -52 0 -58 2 -66 15 -58 19 12
37 12 37 1 0 -6 6 -5 15 2 12 10 15 10 15 -1 0 -11 2 -11 10 1 6 9 10 11 10 3
0 -7 7 -10 15 -7 8 4 12 10 9 15 -3 5 0 9 6 9 6 0 8 5 5 10 -3 5 3 10 14 10
14 0 19 5 16 19 -3 14 1 18 11 14 15 -5 16 -8 18 -45 1 -18 7 -23 29 -23 15 1
27 -3 27 -8 0 -5 8 -3 17 4 14 12 16 12 9 -1 -4 -8 0 -6 8 5 49 62 48 62 134
64 45 1 82 -1 81 -6 -4 -22 2 -35 15 -30 8 3 16 -2 19 -15 3 -11 10 -17 16
-13 6 3 11 0 11 -7 0 -9 3 -9 10 2 8 12 10 12 10 1 0 -11 3 -11 15 -1 11 9 15
9 15 1 0 -7 5 -9 10 -6 6 4 8 11 4 16 -3 5 0 17 8 26 9 12 9 15 1 9 -9 -5 -11
-2 -7 8 9 23 34 20 34 -4 0 -11 3 -19 8 -19 20 3 32 -2 29 -13 -1 -8 9 -13 28
-13 24 0 29 4 27 20 -2 11 -1 17 3 13 11 -11 47 11 39 24 -4 6 -3 8 3 5 11 -7
30 9 33 28 1 6 6 9 11 8 5 -2 9 2 9 8 0 5 5 7 12 3 7 -5 8 -3 4 5 -5 8 -1 14
12 18 12 3 18 11 16 18 -3 8 6 17 23 23 15 6 23 11 18 11 -12 1 -13 41 -1 59
4 7 2 12 -5 12 -10 0 -10 3 -1 12 7 7 8 17 1 30 -7 13 -6 18 2 18 18 0 4 11
-18 14 -15 2 -18 12 -18 65 0 50 -3 62 -18 67 -11 3 -16 12 -13 20 3 7 2 13
-2 13 -4 -1 -9 -1 -12 1 -38 14 -56 6 -51 -22 0 -5 -9 -8 -22 -8 -21 0 -23 4
-22 65 1 54 -2 66 -17 71 -10 3 -17 8 -17 12 3 18 -2 35 -7 29 -4 -3 -13 0
-21 8 -12 12 -62 15 -288 15 -241 0 -274 -2 -279 -16z"/>
</g>
</svg>
